<mxfile host="Electron" agent="Mozilla/5.0 (Windows NT 10.0; Win64; x64) AppleWebKit/537.36 (KHTML, like Gecko) draw.io/27.0.5 Chrome/134.0.6998.205 Electron/35.3.0 Safari/537.36" version="27.0.5">
  <diagram name="Page-1" id="ORpGWpSGpjxYkd4khv6I">
    <mxGraphModel dx="1226" dy="736" grid="1" gridSize="10" guides="1" tooltips="1" connect="1" arrows="1" fold="1" page="1" pageScale="1" pageWidth="850" pageHeight="1100" math="0" shadow="0">
      <root>
        <mxCell id="0" />
        <mxCell id="1" parent="0" />
        <mxCell id="ck4knLo1QUNlbXPkZxxu-1" value="&lt;font style=&quot;font-size: 25px;&quot;&gt;Integration Model &lt;/font&gt;&lt;font size=&quot;1&quot; style=&quot;&quot;&gt;(How two Tables are related)&lt;/font&gt;" style="rounded=0;whiteSpace=wrap;html=1;fillColor=none;strokeColor=none;" parent="1" vertex="1">
          <mxGeometry x="10" y="10" width="350" height="60" as="geometry" />
        </mxCell>
        <mxCell id="ck4knLo1QUNlbXPkZxxu-2" value="crm_cust_info" style="swimlane;fontStyle=0;childLayout=stackLayout;horizontal=1;startSize=30;horizontalStack=0;resizeParent=1;resizeParentMax=0;resizeLast=0;collapsible=1;marginBottom=0;whiteSpace=wrap;html=1;rounded=1;fillColor=#1ba1e2;strokeColor=#006EAF;fontColor=#ffffff;fontSize=15;" parent="1" vertex="1">
          <mxGeometry x="260" y="380" width="150" height="140" as="geometry" />
        </mxCell>
        <mxCell id="OfSwX9wlOnnodMc7BSHM-2" value="cust_id" style="text;strokeColor=none;fillColor=none;align=left;verticalAlign=middle;spacingLeft=4;spacingRight=4;overflow=hidden;points=[[0,0.5],[1,0.5]];portConstraint=eastwest;rotatable=0;whiteSpace=wrap;html=1;fontSize=15;" parent="ck4knLo1QUNlbXPkZxxu-2" vertex="1">
          <mxGeometry y="30" width="150" height="40" as="geometry" />
        </mxCell>
        <mxCell id="ck4knLo1QUNlbXPkZxxu-3" value="cust_key" style="text;strokeColor=none;fillColor=none;align=left;verticalAlign=middle;spacingLeft=4;spacingRight=4;overflow=hidden;points=[[0,0.5],[1,0.5]];portConstraint=eastwest;rotatable=0;whiteSpace=wrap;html=1;fontSize=15;" parent="ck4knLo1QUNlbXPkZxxu-2" vertex="1">
          <mxGeometry y="70" width="150" height="30" as="geometry" />
        </mxCell>
        <mxCell id="e5-iAOYDajNlMQZHKlsj-7" value="CUSTOMER" style="rounded=0;whiteSpace=wrap;html=1;fillColor=#B3FF66;shadow=0;arcSize=27;strokeColor=none;fontColor=#000000;" vertex="1" parent="ck4knLo1QUNlbXPkZxxu-2">
          <mxGeometry y="100" width="150" height="40" as="geometry" />
        </mxCell>
        <mxCell id="ck4knLo1QUNlbXPkZxxu-6" value="crm_prd_info" style="swimlane;fontStyle=0;childLayout=stackLayout;horizontal=1;startSize=30;horizontalStack=0;resizeParent=1;resizeParentMax=0;resizeLast=0;collapsible=1;marginBottom=0;whiteSpace=wrap;html=1;rounded=1;fillColor=#1ba1e2;strokeColor=#006EAF;fontColor=#ffffff;fontSize=15;" parent="1" vertex="1">
          <mxGeometry x="265" y="210" width="140" height="100" as="geometry" />
        </mxCell>
        <mxCell id="ck4knLo1QUNlbXPkZxxu-7" value="prd_key" style="text;strokeColor=none;fillColor=none;align=left;verticalAlign=middle;spacingLeft=4;spacingRight=4;overflow=hidden;points=[[0,0.5],[1,0.5]];portConstraint=eastwest;rotatable=0;whiteSpace=wrap;html=1;fontSize=15;" parent="ck4knLo1QUNlbXPkZxxu-6" vertex="1">
          <mxGeometry y="30" width="140" height="40" as="geometry" />
        </mxCell>
        <mxCell id="e5-iAOYDajNlMQZHKlsj-3" style="edgeStyle=orthogonalEdgeStyle;rounded=0;orthogonalLoop=1;jettySize=auto;html=1;exitX=0.5;exitY=1;exitDx=0;exitDy=0;" edge="1" parent="ck4knLo1QUNlbXPkZxxu-6" source="e5-iAOYDajNlMQZHKlsj-1" target="e5-iAOYDajNlMQZHKlsj-1">
          <mxGeometry relative="1" as="geometry" />
        </mxCell>
        <mxCell id="e5-iAOYDajNlMQZHKlsj-1" value="PRODUCT" style="rounded=0;whiteSpace=wrap;html=1;fillColor=#FF9999;shadow=0;arcSize=27;strokeColor=none;fontColor=#000000;" vertex="1" parent="ck4knLo1QUNlbXPkZxxu-6">
          <mxGeometry y="70" width="140" height="30" as="geometry" />
        </mxCell>
        <mxCell id="ck4knLo1QUNlbXPkZxxu-10" value="Customer Information" style="text;html=1;align=center;verticalAlign=middle;whiteSpace=wrap;rounded=0;" parent="1" vertex="1">
          <mxGeometry x="270" y="350" width="130" height="30" as="geometry" />
        </mxCell>
        <mxCell id="ck4knLo1QUNlbXPkZxxu-11" value="Customer &amp;amp; History Product Information" style="text;html=1;align=center;verticalAlign=middle;whiteSpace=wrap;rounded=0;" parent="1" vertex="1">
          <mxGeometry x="270" y="170" width="130" height="30" as="geometry" />
        </mxCell>
        <mxCell id="ck4knLo1QUNlbXPkZxxu-12" value="crm_sales_details" style="swimlane;fontStyle=0;childLayout=stackLayout;horizontal=1;startSize=30;horizontalStack=0;resizeParent=1;resizeParentMax=0;resizeLast=0;collapsible=1;marginBottom=0;whiteSpace=wrap;html=1;rounded=1;fillColor=#1ba1e2;strokeColor=#006EAF;fontColor=#ffffff;fontSize=15;" parent="1" vertex="1">
          <mxGeometry x="30" y="270" width="140" height="150" as="geometry" />
        </mxCell>
        <mxCell id="ck4knLo1QUNlbXPkZxxu-15" value="prd_key" style="text;strokeColor=none;fillColor=none;align=left;verticalAlign=middle;spacingLeft=4;spacingRight=4;overflow=hidden;points=[[0,0.5],[1,0.5]];portConstraint=eastwest;rotatable=0;whiteSpace=wrap;html=1;fontSize=15;" parent="ck4knLo1QUNlbXPkZxxu-12" vertex="1">
          <mxGeometry y="30" width="140" height="40" as="geometry" />
        </mxCell>
        <mxCell id="ck4knLo1QUNlbXPkZxxu-13" value="cust_id" style="text;strokeColor=none;fillColor=none;align=left;verticalAlign=middle;spacingLeft=4;spacingRight=4;overflow=hidden;points=[[0,0.5],[1,0.5]];portConstraint=eastwest;rotatable=0;whiteSpace=wrap;html=1;fontSize=15;" parent="ck4knLo1QUNlbXPkZxxu-12" vertex="1">
          <mxGeometry y="70" width="140" height="40" as="geometry" />
        </mxCell>
        <mxCell id="e5-iAOYDajNlMQZHKlsj-8" value="SALES" style="rounded=0;whiteSpace=wrap;html=1;fillColor=#9999FF;shadow=0;arcSize=27;strokeColor=none;fontColor=#000000;" vertex="1" parent="ck4knLo1QUNlbXPkZxxu-12">
          <mxGeometry y="110" width="140" height="40" as="geometry" />
        </mxCell>
        <mxCell id="ck4knLo1QUNlbXPkZxxu-14" value="Transactional Records about Sales &amp;amp; Orders" style="text;html=1;align=center;verticalAlign=middle;whiteSpace=wrap;rounded=0;" parent="1" vertex="1">
          <mxGeometry x="35" y="230" width="130" height="30" as="geometry" />
        </mxCell>
        <mxCell id="ck4knLo1QUNlbXPkZxxu-18" value="erp_cust_az12" style="swimlane;fontStyle=0;childLayout=stackLayout;horizontal=1;startSize=30;horizontalStack=0;resizeParent=1;resizeParentMax=0;resizeLast=0;collapsible=1;marginBottom=0;whiteSpace=wrap;html=1;rounded=1;fillColor=#ffcd28;strokeColor=#d79b00;fontSize=15;gradientColor=#ffa500;" parent="1" vertex="1">
          <mxGeometry x="590" y="500" width="140" height="110" as="geometry" />
        </mxCell>
        <mxCell id="ck4knLo1QUNlbXPkZxxu-19" value="cid" style="text;strokeColor=none;fillColor=none;align=left;verticalAlign=middle;spacingLeft=4;spacingRight=4;overflow=hidden;points=[[0,0.5],[1,0.5]];portConstraint=eastwest;rotatable=0;whiteSpace=wrap;html=1;fontSize=15;" parent="ck4knLo1QUNlbXPkZxxu-18" vertex="1">
          <mxGeometry y="30" width="140" height="40" as="geometry" />
        </mxCell>
        <mxCell id="e5-iAOYDajNlMQZHKlsj-6" value="CUSTOMER" style="rounded=0;whiteSpace=wrap;html=1;fillColor=#B3FF66;shadow=0;arcSize=27;strokeColor=none;fontColor=#000000;" vertex="1" parent="ck4knLo1QUNlbXPkZxxu-18">
          <mxGeometry y="70" width="140" height="40" as="geometry" />
        </mxCell>
        <mxCell id="ck4knLo1QUNlbXPkZxxu-20" value="Extra Customer Information (Birthdate)" style="text;html=1;align=center;verticalAlign=middle;whiteSpace=wrap;rounded=0;" parent="1" vertex="1">
          <mxGeometry x="595" y="470" width="130" height="30" as="geometry" />
        </mxCell>
        <mxCell id="ck4knLo1QUNlbXPkZxxu-21" value="erp_loc_a101" style="swimlane;fontStyle=0;childLayout=stackLayout;horizontal=1;startSize=30;horizontalStack=0;resizeParent=1;resizeParentMax=0;resizeLast=0;collapsible=1;marginBottom=0;whiteSpace=wrap;html=1;rounded=1;fillColor=#ffcd28;strokeColor=#d79b00;fontSize=15;gradientColor=#ffa500;" parent="1" vertex="1">
          <mxGeometry x="590" y="340" width="140" height="110" as="geometry" />
        </mxCell>
        <mxCell id="ck4knLo1QUNlbXPkZxxu-28" value="cid" style="text;strokeColor=none;fillColor=none;align=left;verticalAlign=middle;spacingLeft=4;spacingRight=4;overflow=hidden;points=[[0,0.5],[1,0.5]];portConstraint=eastwest;rotatable=0;whiteSpace=wrap;html=1;fontSize=15;" parent="ck4knLo1QUNlbXPkZxxu-21" vertex="1">
          <mxGeometry y="30" width="140" height="40" as="geometry" />
        </mxCell>
        <mxCell id="e5-iAOYDajNlMQZHKlsj-5" value="CUSTOMER" style="rounded=0;whiteSpace=wrap;html=1;fillColor=#B3FF66;shadow=0;arcSize=27;strokeColor=none;fontColor=#000000;" vertex="1" parent="ck4knLo1QUNlbXPkZxxu-21">
          <mxGeometry y="70" width="140" height="40" as="geometry" />
        </mxCell>
        <mxCell id="ck4knLo1QUNlbXPkZxxu-23" value="Location of Customer" style="text;html=1;align=center;verticalAlign=middle;whiteSpace=wrap;rounded=0;" parent="1" vertex="1">
          <mxGeometry x="595" y="310" width="130" height="30" as="geometry" />
        </mxCell>
        <mxCell id="ck4knLo1QUNlbXPkZxxu-24" value="erp_px_cat_g1v2" style="swimlane;fontStyle=0;childLayout=stackLayout;horizontal=1;startSize=30;horizontalStack=0;resizeParent=1;resizeParentMax=0;resizeLast=0;collapsible=1;marginBottom=0;whiteSpace=wrap;html=1;rounded=1;fillColor=#ffcd28;strokeColor=#d79b00;fontSize=15;gradientColor=#ffa500;" parent="1" vertex="1">
          <mxGeometry x="590" y="200" width="140" height="100" as="geometry" />
        </mxCell>
        <mxCell id="ck4knLo1QUNlbXPkZxxu-25" value="id" style="text;strokeColor=none;fillColor=none;align=left;verticalAlign=middle;spacingLeft=4;spacingRight=4;overflow=hidden;points=[[0,0.5],[1,0.5]];portConstraint=eastwest;rotatable=0;whiteSpace=wrap;html=1;fontSize=15;" parent="ck4knLo1QUNlbXPkZxxu-24" vertex="1">
          <mxGeometry y="30" width="140" height="40" as="geometry" />
        </mxCell>
        <mxCell id="e5-iAOYDajNlMQZHKlsj-4" value="PRODUCT" style="rounded=0;whiteSpace=wrap;html=1;fillColor=#FF9999;shadow=0;arcSize=27;strokeColor=none;fontColor=#000000;" vertex="1" parent="ck4knLo1QUNlbXPkZxxu-24">
          <mxGeometry y="70" width="140" height="30" as="geometry" />
        </mxCell>
        <mxCell id="ck4knLo1QUNlbXPkZxxu-26" value="product Categories" style="text;html=1;align=center;verticalAlign=middle;whiteSpace=wrap;rounded=0;" parent="1" vertex="1">
          <mxGeometry x="600" y="170" width="130" height="30" as="geometry" />
        </mxCell>
        <mxCell id="ck4knLo1QUNlbXPkZxxu-35" value="&lt;font style=&quot;font-size: 22px;&quot;&gt;CRM&lt;/font&gt;" style="rounded=1;whiteSpace=wrap;html=1;fillColor=#99CCFF;strokeColor=#6c8ebf;gradientColor=#7ea6e0;" parent="1" vertex="1">
          <mxGeometry x="160" y="100" width="120" height="60" as="geometry" />
        </mxCell>
        <mxCell id="ck4knLo1QUNlbXPkZxxu-37" value="&lt;font style=&quot;font-size: 22px;&quot;&gt;ERP&lt;/font&gt;" style="rounded=1;whiteSpace=wrap;html=1;fillColor=#ffcd28;strokeColor=#d79b00;gradientColor=#ffa500;" parent="1" vertex="1">
          <mxGeometry x="595" y="75" width="120" height="60" as="geometry" />
        </mxCell>
        <mxCell id="OfSwX9wlOnnodMc7BSHM-3" style="edgeStyle=orthogonalEdgeStyle;rounded=0;orthogonalLoop=1;jettySize=auto;html=1;entryX=0;entryY=0.5;entryDx=0;entryDy=0;" parent="1" source="ck4knLo1QUNlbXPkZxxu-15" target="ck4knLo1QUNlbXPkZxxu-7" edge="1">
          <mxGeometry relative="1" as="geometry" />
        </mxCell>
        <mxCell id="OfSwX9wlOnnodMc7BSHM-4" style="edgeStyle=orthogonalEdgeStyle;rounded=0;orthogonalLoop=1;jettySize=auto;html=1;entryX=0;entryY=0.5;entryDx=0;entryDy=0;" parent="1" source="ck4knLo1QUNlbXPkZxxu-13" target="OfSwX9wlOnnodMc7BSHM-2" edge="1">
          <mxGeometry relative="1" as="geometry" />
        </mxCell>
        <mxCell id="OfSwX9wlOnnodMc7BSHM-6" style="edgeStyle=orthogonalEdgeStyle;rounded=0;orthogonalLoop=1;jettySize=auto;html=1;entryX=1;entryY=0.5;entryDx=0;entryDy=0;" parent="1" source="ck4knLo1QUNlbXPkZxxu-19" target="ck4knLo1QUNlbXPkZxxu-3" edge="1">
          <mxGeometry relative="1" as="geometry" />
        </mxCell>
        <mxCell id="TbMBJOy3AChzUHwtMJXR-1" style="edgeStyle=orthogonalEdgeStyle;rounded=0;orthogonalLoop=1;jettySize=auto;html=1;entryX=1;entryY=0.5;entryDx=0;entryDy=0;" parent="1" source="ck4knLo1QUNlbXPkZxxu-25" target="ck4knLo1QUNlbXPkZxxu-7" edge="1">
          <mxGeometry relative="1" as="geometry" />
        </mxCell>
        <mxCell id="TbMBJOy3AChzUHwtMJXR-3" style="edgeStyle=orthogonalEdgeStyle;rounded=0;orthogonalLoop=1;jettySize=auto;html=1;entryX=1;entryY=0.5;entryDx=0;entryDy=0;" parent="1" source="ck4knLo1QUNlbXPkZxxu-28" target="ck4knLo1QUNlbXPkZxxu-3" edge="1">
          <mxGeometry relative="1" as="geometry" />
        </mxCell>
        <mxCell id="e5-iAOYDajNlMQZHKlsj-9" value="" style="rounded=1;whiteSpace=wrap;html=1;fillColor=none;dashed=1;" vertex="1" parent="1">
          <mxGeometry x="10" y="130" width="420" height="470" as="geometry" />
        </mxCell>
        <mxCell id="e5-iAOYDajNlMQZHKlsj-10" value="" style="rounded=1;whiteSpace=wrap;html=1;fillColor=none;dashed=1;" vertex="1" parent="1">
          <mxGeometry x="490" y="110" width="340" height="520" as="geometry" />
        </mxCell>
      </root>
    </mxGraphModel>
  </diagram>
</mxfile>
